# xmcd
#
# Track frame offsets:
#	150
#	10357
#	21432
#	32120
#	44185
#	57025
#	70140
#	81807
#	95235
#	109610
#	124400
#	137762
#	150975
#	163987
#	176737
#	190482
#
# Disc length: 2689 seconds
#
# Revision: 1
# Processed by: cddbd v1.4PL0 Copyright (c) Steve Scherf et al.
# Submitted via: audiograbber 1.81.02
#
DISCID=e70a7f10
DTITLE=Early Bird - Country Coverstory
DYEAR=1997
DGENRE=Country
TTITLE0=He'll Have To Go
TTITLE1=Lipstick On Your Collar
TTITLE2=Memories Are Made Of This
TTITLE3=Crazy
TTITLE4=You're My Best Friend
TTITLE5=Making Believe
TTITLE6=Help Me Make It Through The Night
TTITLE7=Cotton Song
TTITLE8=Rose Garden
TTITLE9=Mamma, He's Crazy
TTITLE10=I Fall To Pieces
TTITLE11=Mansion OnThe Hill
TTITLE12=Detroit City
TTITLE13=Save The Last Dance
TTITLE14=Green Green Grass Of Home
TTITLE15=Adios Amigo
EXTD=
EXTT0=
EXTT1=
EXTT2=
EXTT3=
EXTT4=
EXTT5=
EXTT6=
EXTT7=
EXTT8=
EXTT9=
EXTT10=
EXTT11=
EXTT12=
EXTT13=
EXTT14=
EXTT15=
PLAYORDER=
